@startuml
'https://plantuml.com/class-diagram

class StatusChecker {
- emailSender : EmailSender
- SmsSender : SmsSender
- messengerSender : MessengerSender
+ check()
}

class EmailSender {
+sendEmail()
}
class SmsSender {
+sendEmail()
}
class MessengerSender {
+sendEmail()
}

StatusChecker <-- EmailSender
StatusChecker <-- SmsSender
StatusChecker <-- MessengerSender

@enduml